{"accessors" : [{"bufferView" : 0, "byteOffset" : 0, "componentType" : 5125, "count" : 113709, "type" : "SCALAR", "max" : [98778], "min" : [0]}, {"bufferView" : 1, "byteOffset" : 0, "componentType" : 5126, "count" : 98779, "type" : "VEC3", "max" : [32.54999923706055, -0.3799999952316284, 38.099998474121094], "min" : [-32.992000579833984, -1.8700000047683716, 0], "name" : "POSITION"}], "asset" : {"generator" : "Aspose.3D 21.12", "version" : "2.0"}, "buffers" : [{"uri" : "data:application/octet-stream;base64,", "byteLength" : 1819352}], "bufferViews" : [{"buffer" : 0, "byteOffset" : 0, "byteLength" : 454836, "target" : 34963}, {"buffer" : 0, "byteOffset" : 454840, "byteLength" : 1364508, "byteStride" : 12, "target" : 34962}], "meshes" : [{"primitives" : [{"attributes" : {"POSITION" : 1}, "indices" : 0, "mode" : 4}], "name" : ""}], "nodes" : [{"mesh" : 0, "name" : "group_0_0"}], "scene" : 0, "scenes" : [{"nodes" : [0]}]}